# xmcd
# 
# Track frame offsets:
#     183
#     18928
#     31648
#     52425
#     66470
#     84778
#     92090
#     105818
#     126145
#     142363
#     156703
#     173520
# 
# Disc length: 2495
# 
# Revision: 6
# Processed by: cddbd v1.5.2PL0 Copyright (c) Steve Scherf et al.
# Submitted via: fre:ac v1.0.17
# 
DISCID=9d09bd0c
DTITLE=Pino Daniele - Nero a metà
DYEAR=1980
DGENRE=Blues
TTITLE0=I say i' sto ccà
TTITLE1=Musica musica
TTITLE2=Quanno chiove
TTITLE3=Puozze passà nu guaio
TTITLE4=Voglio di più
TTITLE5=Appocundria
TTITLE6=A me me piace 'o blues
TTITLE7=E so cuntento 'e stà
TTITLE8=Nun me scoccià
TTITLE9=Alleria
TTITLE10=A testa in giù
TTITLE11=Sotto 'o sole
EXTD=1980 EMI Italiana S.P.A. YEAR: 1980
EXTT0=
EXTT1=
EXTT2=
EXTT3=
EXTT4=
EXTT5=
EXTT6=
EXTT7=
EXTT8=
EXTT9=
EXTT10=
EXTT11=
PLAYORDER=
